<?xml version="1.0" encoding="UTF-8"?>
<svg width="30" height="30" version="1.1" viewBox="0 0 7.9375 7.9375" xmlns="http://www.w3.org/2000/svg">
  <path d="m6.071 1.0511c-5.836e-4 -5.837e-4 -0.00117-7.781e-4 -0.00156-3.891e-4l-2.1013 2.1013-2.1007-2.1005c-4.863e-4 -5.836e-4 -9.927e-4 -7.781e-4 -0.001478-1.945e-4l-0.81538 0.81538c-1.946e-4 1.945e-4 -1.527e-4 7.795e-4 2.918e-4 0.00156l2.1007 2.1005-2.1009 2.1008c-2.14e-4 1.944e-4 -1.527e-4 7.793e-4 3.502e-4 0.00156l0.8153 0.8153c4.864e-4 5.836e-4 0.00107 7.795e-4 0.00148 3.892e-4l2.1009-2.1008 2.1007 2.1005c1.946e-4 1.946e-4 7.794e-4 3.891e-4 0.00117 0l0.81545-0.81567c1.946e-4 -1.945e-4 3.891e-4 -7.793e-4 0-7.793e-4l-2.1007-2.1005 2.1015-2.1013c1.945e-4 -1.946e-4 1.536e-4 -7.795e-4 -3.891e-4 -0.00156z" fill="#fff"/>
</svg>
