<?xml version="1.0" encoding="UTF-8"?>
<svg width="30" height="30" version="1.1" viewBox="0 0 7.9375 7.9375" xmlns="http://www.w3.org/2000/svg">
  <path d="m3.712 0c-0.19849 3.08e-4 -0.24116 0.0068-0.29959 0.02864-0.10802 0.04041-0.2071 0.12717-0.26543 0.23248-0.04346 0.07846-0.04569 0.09184-0.05073 0.30062l-0.0052 0.21854h1.7556l-0.0052-0.21854c-5e-3 -0.20878-0.0073-0.22216-0.05073-0.30062-0.05833-0.10532-0.15741-0.19207-0.26543-0.23248-0.07791-0.02915-0.12787-0.03094-0.55641-0.02724-0.10713-9.42e-4 -0.19065-0.0015-0.25682-0.0014zm0.25682 1.0563c-2.8329 5e-6 -3.1446 0.0024-3.1663 0.02415-0.02047 0.02047-0.02407 0.07523-0.02387 0.36417 1.27e-4 0.18705 0.0053 0.34753 0.01151 0.35668 0.0062 0.0092 0.02506 0.0245 0.04193 0.03407 0.02115 0.01199 1.5777 0.01853 3.1368 0.019 1.5591-4.71e-4 3.1156-7e-3 3.1368-0.019 0.01687-0.0096 0.03574-0.02491 0.04193-0.03407 0.0062-0.0092 0.01138-0.16963 0.01151-0.35668 2e-4 -0.28894-0.0034-0.3437-0.02387-0.36417-0.02173-0.02173-0.33348-0.02414-3.1663-0.02415zm-2.738 1.0725 0.0041 0.08863c0.0023 0.04876 0.01772 0.3474 0.03425 0.66366 0.01654 0.31627 0.04732 0.91314 0.06851 1.3264 0.06227 1.2144 0.06536 1.2724 0.12233 2.3385 0.02997 0.56085 0.06199 1.0523 0.07122 1.0922 0.029 0.12532 0.13043 0.23644 0.25747 0.28209 0.04403 0.01582 0.50331 0.01892 2.1801 0.01647 1.6768 0.0024 2.1361-6.52e-4 2.1801-0.01647 0.12704-0.04565 0.22848-0.15676 0.25747-0.28209 0.0092-0.0399 0.04125-0.53138 0.07122-1.0922 0.05697-1.0661 0.06006-1.1241 0.12232-2.3385 0.02119-0.41326 0.05197-1.0101 0.06851-1.3264s0.03197-0.61491 0.03426-0.66366l0.0041-0.08863-2.738 3.74e-4zm2.738 0.68828c0.07312 0.0021 0.14425 0.03502 0.1752 0.10024 0.02281 0.04807 0.02508 0.23915 0.02508 2.1213-2e-6 1.8821-0.0023 2.0732-0.02508 2.1213-0.03095 0.06522-0.10209 0.09819-0.1752 0.10024-0.07312-2e-3 -0.14426-0.03501-0.17521-0.10024-0.02281-0.04807-0.02508-0.23915-0.02508-2.1213 1e-6 -1.8821 0.0023-2.0732 0.02508-2.1213 0.03095-0.06522 0.10209-0.09819 0.17521-0.10024zm-1.5723 6.55e-4c0.01-4.34e-4 0.01993-3.37e-4 0.02976 1.88e-4 0.03932 0.0021 0.07609 0.01196 0.09911 0.02883 0.07795 0.05708 0.08749 0.10016 0.09855 0.44363 0.01104 0.34266 0.05454 1.6176 0.1008 2.9563 0.03156 0.9132 0.03185 0.9087-0.05868 0.96962-0.05032 0.03387-0.14378 0.04514-0.20094 0.02424-0.03639-0.0133-0.09407-0.07039-0.10829-0.10716-0.0071-0.0185-0.02378-0.34623-0.03697-0.72834s-0.02701-0.75688-0.03079-0.83279c-0.0038-0.07591-0.01408-0.38298-0.02284-0.68238-0.0088-0.2994-0.02247-0.72722-0.03051-0.95071-0.03878-1.0773-0.0386-0.97365-0.0023-1.0323 0.01795-0.02904 0.05327-0.06127 0.07843-0.07169 0.02496-0.01034 0.05478-0.0161 0.0847-0.01741zm3.1445 0c0.02992 0.0013 0.05974 0.0071 0.0847 0.01741 0.02516 0.01042 0.06048 0.04265 0.07843 0.07169 0.03626 0.05868 0.03643-0.04498-0.0023 1.0323-8e-3 0.2235-0.02175 0.65131-0.03051 0.95071-0.0087 0.2994-0.01905 0.60648-0.02284 0.68238-0.0038 0.0759-0.01761 0.45068-0.03079 0.83279-0.01319 0.38211-0.02982 0.70984-0.03697 0.72834-0.01422 0.03678-0.0719 0.09386-0.10829 0.10716-0.05717 0.0209-0.15062 0.0096-0.20094-0.02424-0.09053-0.06092-0.09024-0.05642-0.05868-0.96962 0.04626-1.3387 0.08976-2.6136 0.1008-2.9563 0.01107-0.34347 0.02061-0.38655 0.09855-0.44363 0.02303-0.01686 0.05979-0.02668 0.09911-0.02883 0.0098-5.25e-4 0.01979-6.22e-4 0.02976-1.88e-4z" fill="#fff"/>
</svg>
