<?xml version="1.0" encoding="UTF-8"?>
<svg width="30" height="30" version="1.1" viewBox="0 0 30 30" xmlns="http://www.w3.org/2000/svg">
  <path d="m14.853 5.3233e-4c-3.5125-0.0032199-3.8275 0.020054-4.4598 0.32616-0.882 0.42697-1.2906 1.0222-1.5087 2.1953l-0.17675 0.94919h-1.7646c-1.5767 0-1.8223 0.038713-2.3017 0.36132-0.6497 0.43721-1.0175 1.3787-0.81638 2.0869l0.13379 0.47362 11.012 0.040038h0.0586l11.012-0.040038 0.13378-0.47362c0.20111-0.70816-0.16668-1.6496-0.81638-2.0869-0.47939-0.32261-0.72497-0.36132-2.3017-0.36132h-1.7646l-0.17675-0.94919c-0.21816-1.1731-0.62675-1.7683-1.5087-2.1953-0.63234-0.30611-0.94734-0.32938-4.4598-0.32616-0.07562 6.9386e-5 -0.0747 0.0018485-0.14746 0.0019531-0.07276-1.05e-4 -0.07184-0.0018837-0.14746-0.0019531zm-0.041014 1.6552c0.10117 0 0.09266 0.00288 0.18847 0.00293 0.09581-4.59e-5 0.08731-0.00293 0.18847-0.00293 3.7066 0 3.7079-5.627e-4 4.0097 0.37206 0.16602 0.20503 0.30175 0.61383 0.30175 0.90818v0.53514h-8.9998v-0.53514c0-0.29435 0.13572-0.70315 0.30175-0.90818 0.30173-0.37263 0.30308-0.37206 4.0097-0.37206zm0.18847 6.2371c-9.3288 0-9.8656 0.015387-10.009 0.28417-0.102 0.19059 0.079325 3.4758 0.55272 9.987 0.80041 11.009 0.75425 10.756 2.1035 11.469 0.69207 0.36598 0.69194 0.3662 7.3533 0.3662 6.6614 0 6.6612-2.27e-4 7.3533-0.3662 1.3492-0.71348 1.303-0.4602 2.1035-11.469 0.4734-6.5112 0.65472-9.7964 0.55272-9.987-0.14385-0.26879-0.68067-0.28417-10.009-0.28417zm-5.3993 2.2187c0.21027-0.01558 0.431 0.04591 0.55174 0.1914 0.2238 0.26967 0.6897 15.877 0.48534 16.259-0.21753 0.40646-0.90116 0.35845-1.083-0.07617-0.19726-0.47154-0.61688-15.749-0.44237-16.106 0.07826-0.16024 0.278-0.25296 0.48827-0.26855zm10.799 0c0.21027 0.01558 0.41001 0.1083 0.48827 0.26855 0.1745 0.35731-0.24511 15.634-0.44237 16.106-0.18182 0.43462-0.86544 0.48263-1.083 0.07617-0.20436-0.38186 0.26153-15.99 0.48534-16.259 0.12075-0.14549 0.34148-0.20699 0.55174-0.1914zm-5.3993 0.01953c0.22894 0.0087 0.4471 0.09094 0.54686 0.27734 0.2248 0.42005 0.2248 15.707 0 16.127-0.19284 0.14035-0.3683 0.2453-0.54686 0.26269-0.17855-0.01738-0.35402-0.12233-0.54686-0.26269-0.2248-0.42005-0.2248-15.707 0-16.127 0.09976-0.1864 0.31792-0.26863 0.54686-0.27734z" fill="#fff"/>
</svg>
