<?xml version="1.0" encoding="UTF-8"?>
<svg width="30" height="30" version="1.1" viewBox="0 0 30 30" xmlns="http://www.w3.org/2000/svg">
  <path d="m25.156 1.1179c-0.24378-0.00309-0.48455 0.084494-0.6631 0.26305l-0.0274 0.027401-1.7025 1.7043 5.2463 5.2737 1.7025-1.7025c0.38456-0.38456 0.38456-0.9892 0-1.3463l-3.8726-3.9293c-0.19228-0.19229-0.43941-0.28701-0.68319-0.29045zm-20.308 1.7701c-2.6853 0-4.8481 2.1628-4.8481 4.8481v16.298c0 2.6853 2.1628 4.8481 4.8481 4.8481h16c2.6853 0 4.8463-2.1628 4.8463-4.8481v-6.3168c3.28e-4 -0.67911-0.54455-1.2297-1.2166-1.2294-0.67133 6.81e-4 -1.2151 0.55099-1.2148 1.2294v4.775c0 2.1771-1.7522 3.9293-3.9293 3.9293h-12.972c-2.1771 0-3.9311-1.7522-3.9311-3.9293v-13.214c0-2.1771 1.754-3.9293 3.9311-3.9293h10.896v-0.00366c0.67768-6.732e-4 1.2269-0.54987 1.2276-1.2276 3.33e-4 -0.67839-0.54916-1.2287-1.2276-1.2294zm16.963 1.2093-9.9264 9.9246 5.2445 5.2445 9.9246-9.9264zm-15.967 5.703c-0.52391 0-0.94624 0.42233-0.94624 0.94624s0.42233 0.94624 0.94624 0.94624h6.1597c0.52391 0 0.94442-0.42233 0.94442-0.94624s-0.4205-0.94624-0.94442-0.94624zm5.2719 5.3706-2.1701 5.8236c-0.19228 0.49443 0.05541 1.0444 0.54984 1.2367 0.21975 0.08241 0.4671 0.08241 0.68685 0l5.8236-2.1975zm-5.2719 0.05297c-0.52391 0-0.94624 0.42233-0.94624 0.94624 0 0.52391 0.42233 0.94441 0.94624 0.94441h2.6944c0.52391 0 0.94624-0.4205 0.94624-0.94441 0-0.52391-0.42233-0.94624-0.94624-0.94624zm0 5.1714c-0.52391 0-0.94624 0.42233-0.94624 0.94624 0 0.52391 0.42233 0.94441 0.94624 0.94441h0.38544c0.52391 0 0.94624-0.4205 0.94624-0.94441 0-0.52391-0.42233-0.94624-0.94624-0.94624z" fill="#fff"/>
</svg>
